<svg xmlns="http://www.w3.org/2000/svg" width="1200" height="675" viewBox="0 0 1200 675"><defs><linearGradient id="a" x1="0%" x2="100%" y1="0%" y2="100%"><stop offset="0%" style="stop-color:#0a0a0c;stop-opacity:1"/><stop offset="100%" style="stop-color:#121216;stop-opacity:1"/></linearGradient></defs><path fill="url(#a)" d="M0 0h1200v675H0z"/><text x="40" y="35" fill="#ff2d7a" font-family="monospace" font-size="12" letter-spacing="2">LEAD QUALIFICATION WORKFLOW</text><rect width="220" height="520" x="40" y="80" fill="#1c1c22" stroke="rgba(245,242,236,0.08)" rx="8"/><text x="60" y="110" fill="#9a968c" font-family="monospace" font-size="11" letter-spacing="1">NEW LEADS (12)</text><rect width="180" height="90" x="60" y="130" fill="rgba(245,242,236,0.04)" stroke="rgba(245,242,236,0.08)" rx="6"/><text x="75" y="155" fill="#f5f2ec" font-size="13" font-weight="bold">TechCorp GmbH</text><text x="75" y="175" fill="#9a968c" font-size="10">Budget: €50k+</text><text x="75" y="195" fill="#9a968c" font-size="10">Employees: 250</text><circle cx="215" cy="200" r="3" fill="#d1a85c"/><rect width="180" height="90" x="60" y="235" fill="rgba(245,242,236,0.04)" stroke="rgba(245,242,236,0.08)" rx="6"/><text x="75" y="260" fill="#f5f2ec" font-size="13" font-weight="bold">DataFlow Inc</text><text x="75" y="280" fill="#9a968c" font-size="10">Budget: €30k+</text><text x="75" y="300" fill="#9a968c" font-size="10">Employees: 120</text><circle cx="215" cy="305" r="3" fill="#d1a85c"/><rect width="180" height="90" x="60" y="340" fill="rgba(245,242,236,0.04)" stroke="rgba(245,242,236,0.08)" rx="6"/><text x="75" y="365" fill="#f5f2ec" font-size="13" font-weight="bold">StartupX</text><text x="75" y="385" fill="#9a968c" font-size="10">Budget: €10k</text><text x="75" y="405" fill="#9a968c" font-size="10">Employees: 15</text><circle cx="215" cy="410" r="3" fill="#9a968c"/><path fill="none" stroke="#ff2d7a" stroke-width="2" d="M270 340h40"/><path fill="#ff2d7a" d="m310 340-5-5v10z"/><text x="240" y="325" fill="#ff2d7a" font-size="10">AI Agent</text><rect width="250" height="520" x="320" y="80" fill="#1c1c22" stroke="rgba(245,242,236,0.08)" rx="8"/><text x="340" y="110" fill="#9a968c" font-family="monospace" font-size="11" letter-spacing="1">AI SCORING ENGINE</text><rect width="210" height="140" x="340" y="130" fill="rgba(255,45,122,0.06)" stroke="rgba(255,45,122,0.2)" rx="6"/><text x="360" y="155" fill="#f5f2ec" font-size="12" font-weight="bold">TechCorp GmbH</text><text x="360" y="185" fill="#9a968c" font-size="10">Company Size</text><rect width="160" height="6" x="360" y="195" fill="rgba(245,242,236,0.06)" rx="3"/><rect width="144" height="6" x="360" y="195" fill="#ff2d7a" rx="3"/><text x="525" y="202" fill="#ff2d7a" font-size="9">90%</text><text x="360" y="220" fill="#9a968c" font-size="10">Budget Match</text><rect width="160" height="6" x="360" y="230" fill="rgba(245,242,236,0.06)" rx="3"/><rect width="128" height="6" x="360" y="230" fill="#ff2d7a" rx="3"/><text x="525" y="237" fill="#ff2d7a" font-size="9">80%</text><text x="360" y="255" fill="#9a968c" font-size="10">Engagement</text><rect width="160" height="6" x="360" y="265" fill="rgba(245,242,236,0.06)" rx="3"/><rect width="112" height="6" x="360" y="265" fill="#8fa373" rx="3"/><text x="525" y="272" fill="#8fa373" font-size="9">70%</text><rect width="210" height="50" x="340" y="290" fill="rgba(255,45,122,0.08)" stroke="rgba(255,45,122,0.2)" rx="6"/><text x="360" y="310" fill="#9a968c" font-size="10">FINAL SCORE</text><text x="360" y="330" fill="#ff2d7a" font-size="20" font-weight="bold">92</text><text x="410" y="332" fill="#8fa373" font-size="11">↑ High Priority</text><rect width="210" height="80" x="340" y="360" fill="rgba(245,242,236,0.04)" stroke="rgba(245,242,236,0.08)" rx="6"/><text x="360" y="385" fill="#9a968c" font-size="10">DECISION RULES</text><text x="360" y="405" fill="#f5f2ec" font-size="10">✓ Score &gt; 80</text><text x="360" y="422" fill="#f5f2ec" font-size="10">✓ Budget Match</text><text x="360" y="439" fill="#8fa373" font-size="11" font-weight="bold">→ QUALIFIED</text><path fill="none" stroke="#ff2d7a" stroke-width="2" d="M580 240h40"/><path fill="#ff2d7a" d="m620 240-5-5v10z"/><rect width="230" height="250" x="630" y="80" fill="#1c1c22" stroke="rgba(245,242,236,0.08)" rx="8"/><text x="650" y="110" fill="#9a968c" font-family="monospace" font-size="11" letter-spacing="1">QUALIFIED (8)</text><rect width="190" height="85" x="650" y="130" fill="rgba(255,45,122,0.08)" stroke="rgba(255,45,122,0.2)" rx="6"/><text x="665" y="155" fill="#f5f2ec" font-size="13" font-weight="bold">TechCorp GmbH</text><text x="665" y="175" fill="#ff2d7a" font-size="11">Score: 92</text><text x="665" y="195" fill="#9a968c" font-size="10">Ready for assignment</text><rect width="60" height="14" x="665" y="202" fill="rgba(255,45,122,0.15)" rx="3"/><text x="670" y="212" fill="#ff2d7a" font-family="monospace" font-size="9">HOT LEAD</text><rect width="190" height="85" x="650" y="230" fill="rgba(255,45,122,0.08)" stroke="rgba(255,45,122,0.2)" rx="6"/><text x="665" y="255" fill="#f5f2ec" font-size="13" font-weight="bold">DataFlow Inc</text><text x="665" y="275" fill="#ff2d7a" font-size="11">Score: 85</text><text x="665" y="295" fill="#9a968c" font-size="10">Ready for assignment</text><path fill="none" stroke="#ff2d7a" stroke-width="2" d="M790 180h100"/><path fill="#ff2d7a" d="m890 180-5-5v10z"/><text x="805" y="172" fill="#ff2d7a" font-size="10">Auto-Assign</text><rect width="260" height="520" x="900" y="80" fill="#1c1c22" stroke="rgba(245,242,236,0.08)" rx="8"/><text x="920" y="110" fill="#9a968c" font-family="monospace" font-size="11" letter-spacing="1">ASSIGNED TO SALES (5)</text><rect width="220" height="110" x="920" y="130" fill="rgba(143,163,115,0.08)" stroke="rgba(143,163,115,0.2)" rx="6"/><text x="940" y="155" fill="#f5f2ec" font-size="13" font-weight="bold">TechCorp GmbH</text><text x="940" y="175" fill="#8fa373" font-size="11">Score: 92 • Anna Schmidt</text><text x="940" y="195" fill="#9a968c" font-size="10">Assigned: 2 min ago</text><text x="940" y="215" fill="#9a968c" font-size="10">Next: Initial call scheduled</text><rect width="80" height="14" x="940" y="222" fill="rgba(143,163,115,0.15)" rx="3"/><text x="945" y="232" fill="#8fa373" font-family="monospace" font-size="9">CONTACTED</text><rect width="220" height="110" x="920" y="255" fill="rgba(143,163,115,0.08)" stroke="rgba(143,163,115,0.2)" rx="6"/><text x="940" y="280" fill="#f5f2ec" font-size="13" font-weight="bold">DataFlow Inc</text><text x="940" y="300" fill="#8fa373" font-size="11">Score: 85 • Tom Weber</text><text x="940" y="320" fill="#9a968c" font-size="10">Assigned: 15 min ago</text><text x="940" y="340" fill="#9a968c" font-size="10">Next: Email sent, awaiting reply</text><rect width="220" height="110" x="920" y="380" fill="rgba(143,163,115,0.08)" stroke="rgba(143,163,115,0.2)" rx="6"/><text x="940" y="405" fill="#f5f2ec" font-size="13" font-weight="bold">InnovateCo</text><text x="940" y="425" fill="#8fa373" font-size="11">Score: 88 • Lisa Müller</text><text x="940" y="445" fill="#9a968c" font-size="10">Assigned: 1 hour ago</text><text x="940" y="465" fill="#9a968c" font-size="10">Next: Meeting in 2 days</text><rect width="70" height="14" x="940" y="472" fill="rgba(143,163,115,0.15)" rx="3"/><text x="945" y="482" fill="#8fa373" font-family="monospace" font-size="9">IN PROGRESS</text><path fill="none" stroke="#9a968c" stroke-dasharray="4,4" stroke-width="2" d="m580 440 40 60"/><path fill="#9a968c" d="m620 500-2-7-5 4z"/><text x="585" y="475" fill="#9a968c" font-size="10">Low Score</text><rect width="230" height="250" x="630" y="350" fill="#1c1c22" stroke="rgba(245,242,236,0.08)" rx="8"/><text x="650" y="380" fill="#9a968c" font-family="monospace" font-size="11" letter-spacing="1">NURTURE POOL (4)</text><rect width="190" height="75" x="650" y="400" fill="rgba(154,150,140,0.08)" stroke="rgba(154,150,140,0.2)" rx="6"/><text x="665" y="425" fill="#f5f2ec" font-size="13">StartupX</text><text x="665" y="445" fill="#9a968c" font-size="11">Score: 42</text><text x="665" y="465" fill="#9a968c" font-size="10">Re-evaluate in 3 months</text><rect width="190" height="75" x="650" y="490" fill="rgba(154,150,140,0.08)" stroke="rgba(154,150,140,0.2)" rx="6"/><text x="665" y="515" fill="#f5f2ec" font-size="13">SmallCo</text><text x="665" y="535" fill="#9a968c" font-size="11">Score: 38</text><text x="665" y="555" fill="#9a968c" font-size="10">Budget too low</text><rect width="1120" height="35" x="40" y="620" fill="rgba(255,45,122,0.06)" stroke="rgba(255,45,122,0.2)" rx="6"/><text x="60" y="642" fill="#9a968c" font-size="11">Today&apos;s Performance:</text><text x="250" y="642" fill="#ff2d7a" font-size="11" font-weight="bold">12 New Leads</text><text x="400" y="642" fill="#8fa373" font-size="11" font-weight="bold">8 Qualified (67%)</text><text x="600" y="642" fill="#8fa373" font-size="11" font-weight="bold">5 Assigned</text><text x="780" y="642" fill="#9a968c" font-size="11">Avg. Processing: 2.3 min</text></svg>