<svg xmlns="http://www.w3.org/2000/svg" width="1200" height="675" viewBox="0 0 1200 675"><defs><linearGradient id="a" x1="0%" x2="100%" y1="0%" y2="100%"><stop offset="0%" style="stop-color:#0a0a0c;stop-opacity:1"/><stop offset="100%" style="stop-color:#121216;stop-opacity:1"/></linearGradient></defs><path fill="url(#a)" d="M0 0h1200v675H0z"/><text x="40" y="35" fill="#ff2d7a" font-family="monospace" font-size="12" letter-spacing="2">CUSTOM API BUILDER INTERFACE</text><rect width="1120" height="540" x="40" y="70" fill="#1c1c22" stroke="rgba(245,242,236,0.08)" rx="8"/><text x="60" y="100" fill="#9a968c" font-family="monospace" font-size="11" letter-spacing="1">API ENDPOINT CONFIGURATION</text><rect width="540" height="460" x="60" y="120" fill="rgba(245,242,236,0.02)" stroke="rgba(245,242,236,0.08)" rx="6"/><rect width="500" height="60" x="80" y="140" fill="rgba(255,45,122,0.08)" stroke="rgba(255,45,122,0.2)" rx="4"/><rect width="60" height="30" x="95" y="155" fill="rgba(143,163,115,0.12)" rx="4"/><text x="110" y="176" fill="#8fa373" font-size="12" font-weight="bold">GET</text><text x="170" y="176" fill="#f5f2ec" font-family="monospace" font-size="13">/api/v1/customers/:id</text><text x="80" y="225" fill="#5e5a52" font-family="monospace" font-size="10">REQUEST HEADERS</text><rect width="500" height="90" x="80" y="235" fill="rgba(245,242,236,0.04)" stroke="rgba(245,242,236,0.08)" rx="4"/><text x="100" y="255" fill="#ff2d7a" font-family="monospace" font-size="10">Authorization:</text><text x="250" y="255" fill="#f5f2ec" font-family="monospace" font-size="10">Bearer {token}</text><text x="100" y="275" fill="#ff2d7a" font-family="monospace" font-size="10">Content-Type:</text><text x="250" y="275" fill="#f5f2ec" font-family="monospace" font-size="10">application/json</text><text x="100" y="295" fill="#ff2d7a" font-family="monospace" font-size="10">Accept:</text><text x="250" y="295" fill="#f5f2ec" font-family="monospace" font-size="10">application/json</text><text x="80" y="350" fill="#5e5a52" font-family="monospace" font-size="10">PARAMETERS</text><rect width="500" height="110" x="80" y="360" fill="rgba(245,242,236,0.04)" stroke="rgba(245,242,236,0.08)" rx="4"/><rect width="460" height="25" x="100" y="375" fill="rgba(245,242,236,0.02)" rx="3"/><text x="115" y="392" fill="#ff2d7a" font-family="monospace" font-size="10">id</text><text x="200" y="392" fill="#9a968c" font-size="9">string (path)</text><text x="340" y="392" fill="#9a968c" font-size="9">required</text><text x="450" y="392" fill="#f5f2ec" font-size="9">Customer ID</text><rect width="460" height="25" x="100" y="405" fill="rgba(245,242,236,0.02)" rx="3"/><text x="115" y="422" fill="#ff2d7a" font-family="monospace" font-size="10">include</text><text x="200" y="422" fill="#9a968c" font-size="9">string (query)</text><text x="340" y="422" fill="#9a968c" font-size="9">optional</text><text x="450" y="422" fill="#f5f2ec" font-size="9">Related data</text><rect width="460" height="25" x="100" y="435" fill="rgba(245,242,236,0.02)" rx="3"/><text x="115" y="452" fill="#ff2d7a" font-family="monospace" font-size="10">fields</text><text x="200" y="452" fill="#9a968c" font-size="9">array (query)</text><text x="340" y="452" fill="#9a968c" font-size="9">optional</text><text x="450" y="452" fill="#f5f2ec" font-size="9">Field filter</text><text x="80" y="495" fill="#5e5a52" font-family="monospace" font-size="10">RESPONSE BODY</text><rect width="500" height="65" x="80" y="505" fill="#0a0a0c" stroke="rgba(245,242,236,0.08)" rx="4"/><text x="100" y="525" fill="#9a968c" font-family="monospace" font-size="9">{</text><text x="120" y="540" fill="#d1a85c" font-family="monospace" font-size="9">&quot;id&quot;</text><text x="160" y="540" fill="#9a968c" font-family="monospace" font-size="9">:</text><text x="175" y="540" fill="#8fa373" font-family="monospace" font-size="9">&quot;12345&quot;</text><text x="230" y="540" fill="#9a968c" font-family="monospace" font-size="9">,</text><text x="120" y="555" fill="#d1a85c" font-family="monospace" font-size="9">&quot;name&quot;</text><text x="170" y="555" fill="#9a968c" font-family="monospace" font-size="9">:</text><text x="185" y="555" fill="#8fa373" font-family="monospace" font-size="9">&quot;TechCorp GmbH&quot;</text><text x="100" y="565" fill="#9a968c" font-family="monospace" font-size="9">}</text><rect width="520" height="460" x="620" y="120" fill="rgba(245,242,236,0.02)" stroke="rgba(245,242,236,0.08)" rx="6"/><text x="640" y="150" fill="#f5f2ec" font-size="12" font-weight="bold">API Testing</text><text x="640" y="180" fill="#5e5a52" font-family="monospace" font-size="10">TEST REQUEST</text><rect width="480" height="100" x="640" y="190" fill="rgba(255,45,122,0.08)" stroke="rgba(255,45,122,0.2)" rx="4"/><text x="660" y="210" fill="#8fa373" font-family="monospace" font-size="10">GET</text><text x="700" y="210" fill="#f5f2ec" font-family="monospace" font-size="10">https://api.yourcompany.com</text><text x="700" y="228" fill="#f5f2ec" font-family="monospace" font-size="10">/v1/customers/12345</text><text x="660" y="250" fill="#9a968c" font-size="9">Headers: 3 • Params: 1</text><rect width="100" height="22" x="660" y="260" fill="rgba(255,45,122,0.15)" rx="4"/><text x="680" y="275" fill="#ff2d7a" font-size="10" font-weight="bold">SEND REQUEST</text><text x="640" y="315" fill="#5e5a52" font-family="monospace" font-size="10">RESPONSE</text><rect width="480" height="45" x="640" y="325" fill="rgba(143,163,115,0.08)" stroke="rgba(143,163,115,0.2)" rx="4"/><rect width="80" height="20" x="655" y="338" fill="rgba(143,163,115,0.15)" rx="3"/><text x="665" y="352" fill="#8fa373" font-family="monospace" font-size="10">200 OK</text><text x="750" y="352" fill="#9a968c" font-size="9">Response time: 124ms</text><rect width="480" height="190" x="640" y="380" fill="#0a0a0c" stroke="rgba(245,242,236,0.08)" rx="4"/><text x="660" y="400" fill="#9a968c" font-family="monospace" font-size="9">{</text><text x="680" y="418" fill="#d1a85c" font-family="monospace" font-size="9">&quot;id&quot;</text><text x="720" y="418" fill="#9a968c" font-family="monospace" font-size="9">:</text><text x="740" y="418" fill="#8fa373" font-family="monospace" font-size="9">&quot;12345&quot;</text><text x="800" y="418" fill="#9a968c" font-family="monospace" font-size="9">,</text><text x="680" y="436" fill="#d1a85c" font-family="monospace" font-size="9">&quot;name&quot;</text><text x="730" y="436" fill="#9a968c" font-family="monospace" font-size="9">:</text><text x="750" y="436" fill="#8fa373" font-family="monospace" font-size="9">&quot;TechCorp GmbH&quot;</text><text x="880" y="436" fill="#9a968c" font-family="monospace" font-size="9">,</text><text x="680" y="454" fill="#d1a85c" font-family="monospace" font-size="9">&quot;email&quot;</text><text x="735" y="454" fill="#9a968c" font-family="monospace" font-size="9">:</text><text x="755" y="454" fill="#8fa373" font-family="monospace" font-size="9">&quot;info@techcorp.com&quot;</text><text x="900" y="454" fill="#9a968c" font-family="monospace" font-size="9">,</text><text x="680" y="472" fill="#d1a85c" font-family="monospace" font-size="9">&quot;status&quot;</text><text x="740" y="472" fill="#9a968c" font-family="monospace" font-size="9">:</text><text x="760" y="472" fill="#8fa373" font-family="monospace" font-size="9">&quot;active&quot;</text><text x="830" y="472" fill="#9a968c" font-family="monospace" font-size="9">,</text><text x="680" y="490" fill="#d1a85c" font-family="monospace" font-size="9">&quot;created_at&quot;</text><text x="765" y="490" fill="#9a968c" font-family="monospace" font-size="9">:</text><text x="785" y="490" fill="#8fa373" font-family="monospace" font-size="9">&quot;2024-01-15T10:30:00Z&quot;</text><text x="680" y="508" fill="#d1a85c" font-family="monospace" font-size="9">&quot;orders_count&quot;</text><text x="785" y="508" fill="#9a968c" font-family="monospace" font-size="9">:</text><text x="805" y="508" fill="#ff2d7a" font-family="monospace" font-size="9">42</text><text x="680" y="526" fill="#d1a85c" font-family="monospace" font-size="9">&quot;total_value&quot;</text><text x="775" y="526" fill="#9a968c" font-family="monospace" font-size="9">:</text><text x="795" y="526" fill="#ff2d7a" font-family="monospace" font-size="9">24750.50</text><text x="660" y="544" fill="#9a968c" font-family="monospace" font-size="9">}</text><text x="660" y="562" fill="#8fa373" font-size="8">✓ Valid JSON • 7 fields returned</text><rect width="1120" height="35" x="40" y="625" fill="rgba(255,45,122,0.06)" stroke="rgba(255,45,122,0.2)" rx="6"/><text x="60" y="647" fill="#9a968c" font-size="11">API Features:</text><text x="210" y="647" fill="#f5f2ec" font-size="11">RESTful Endpoints</text><text x="400" y="647" fill="#f5f2ec" font-size="11">Interactive Testing</text><text x="600" y="647" fill="#f5f2ec" font-size="11">Auto Documentation</text><text x="820" y="647" fill="#f5f2ec" font-size="11">Custom Parameters</text></svg>