<svg width="1200" height="800" viewBox="0 0 1200 800" xmlns="http://www.w3.org/2000/svg">
  <rect width="1200" height="800" fill="#0d0d0d"/>

  <defs>
    <filter id="glow">
      <feGaussianBlur stdDeviation="20" result="coloredBlur"/>
      <feMerge>
        <feMergeNode in="coloredBlur"/>
        <feMergeNode in="SourceGraphic"/>
      </feMerge>
    </filter>
  </defs>

  <rect x="40" y="40" width="1120" height="720" rx="18" fill="#1a1a1a" stroke="rgba(255, 45, 135, 0.3)" stroke-width="1" filter="url(#glow)"/>

  <text x="80" y="90" font-family="monospace" font-size="10" fill="#ff2d87" letter-spacing="0.08em">VISION AI • IMAGE RECOGNITION &amp; ANALYSIS</text>

  <rect x="80" y="120" width="680" height="560" rx="12" fill="#0d0d0d" stroke="rgba(255, 255, 255, 0.06)" stroke-width="1"/>

  <!-- Image Preview -->
  <text x="100" y="150" font-family="sans-serif" font-size="14" fill="#f5f1e8" font-weight="600">product_photo_01.jpg</text>

  <rect x="580" y="135" width="140" height="24" rx="6" fill="rgba(184, 209, 138, 0.15)"/>
  <circle cx="595" cy="147" r="3" fill="#b8d18a"/>
  <text x="605" y="151" font-family="monospace" font-size="10" fill="#b8d18a">Analysiert • 1.2s</text>

  <!-- Mock Product Image with Bounding Boxes -->
  <rect x="100" y="170" width="400" height="300" rx="8" fill="rgba(255, 255, 255, 0.05)" stroke="rgba(255, 255, 255, 0.1)" stroke-width="1"/>

  <!-- Simulate product image area -->
  <rect x="180" y="220" width="240" height="200" rx="6" fill="rgba(255, 255, 255, 0.03)"/>
  <text x="300" y="330" font-family="sans-serif" font-size="48" fill="rgba(245, 241, 232, 0.2)" text-anchor="middle">👟</text>

  <!-- Bounding Box 1 - Product -->
  <rect x="175" y="215" width="250" height="210" rx="4" fill="none" stroke="#ff2d87" stroke-width="2" stroke-dasharray="5,5"/>
  <rect x="175" y="193" width="90" height="18" rx="4" fill="rgba(255, 45, 135, 0.9)"/>
  <text x="220" y="206" font-family="monospace" font-size="9" fill="white" text-anchor="middle" font-weight="700">Sneaker • 94%</text>

  <!-- Bounding Box 2 - Brand Logo -->
  <rect x="250" y="250" width="100" height="40" rx="4" fill="none" stroke="#b8d18a" stroke-width="2" stroke-dasharray="5,5"/>
  <rect x="250" y="228" width="100" height="18" rx="4" fill="rgba(184, 209, 138, 0.9)"/>
  <text x="300" y="241" font-family="monospace" font-size="9" fill="black" text-anchor="middle" font-weight="700">Nike Logo • 98%</text>

  <!-- Analysis Results -->
  <text x="100" y="500" font-family="sans-serif" font-size="13" fill="#f5f1e8" font-weight="600">Erkannte Objekte</text>

  <rect x="100" y="515" width="400" height="45" rx="6" fill="rgba(255, 45, 135, 0.08)"/>
  <rect x="115" y="527" width="12" height="20" rx="3" fill="#ff2d87"/>
  <text x="140" y="543" font-family="sans-serif" font-size="12" fill="#f5f1e8" font-weight="600">Sneaker (Nike Air Max)</text>
  <rect x="430" y="530" width="50" height="14" rx="4" fill="rgba(255, 45, 135, 0.2)"/>
  <text x="455" y="540" font-family="monospace" font-size="9" fill="#ff2d87" text-anchor="middle" font-weight="700">94%</text>

  <rect x="100" y="570" width="400" height="45" rx="6" fill="rgba(184, 209, 138, 0.08)"/>
  <rect x="115" y="582" width="12" height="20" rx="3" fill="#b8d18a"/>
  <text x="140" y="598" font-family="sans-serif" font-size="12" fill="#f5f1e8" font-weight="600">Nike Swoosh Logo</text>
  <rect x="430" y="585" width="50" height="14" rx="4" fill="rgba(184, 209, 138, 0.2)"/>
  <text x="455" y="595" font-family="monospace" font-size="9" fill="#b8d18a" text-anchor="middle" font-weight="700">98%</text>

  <rect x="100" y="625" width="400" height="45" rx="6" fill="rgba(245, 193, 78, 0.08)"/>
  <rect x="115" y="637" width="12" height="20" rx="3" fill="#f5c14e"/>
  <text x="140" y="653" font-family="sans-serif" font-size="12" fill="#f5f1e8" font-weight="600">Weiße Sohle</text>
  <rect x="430" y="640" width="50" height="14" rx="4" fill="rgba(245, 193, 78, 0.2)"/>
  <text x="455" y="650" font-family="monospace" font-size="9" fill="#f5c14e" text-anchor="middle" font-weight="700">87%</text>

  <!-- Metadata Panel -->
  <text x="520" y="195" font-family="sans-serif" font-size="13" fill="#f5f1e8" font-weight="600">Bild-Metadaten</text>

  <rect x="520" y="210" width="220" height="50" rx="6" fill="rgba(255, 255, 255, 0.03)"/>
  <text x="540" y="230" font-family="monospace" font-size="9" fill="rgba(245, 241, 232, 0.5)">KATEGORIE</text>
  <text x="540" y="250" font-family="monospace" font-size="12" fill="#ff2d87" font-weight="700">Sportschuhe</text>

  <rect x="520" y="270" width="220" height="50" rx="6" fill="rgba(255, 255, 255, 0.03)"/>
  <text x="540" y="290" font-family="monospace" font-size="9" fill="rgba(245, 241, 232, 0.5)">FARBEN ERKANNT</text>
  <text x="540" y="310" font-family="monospace" font-size="12" fill="#f5f1e8">Weiß, Schwarz, Rot</text>

  <rect x="520" y="330" width="220" height="50" rx="6" fill="rgba(255, 255, 255, 0.03)"/>
  <text x="540" y="350" font-family="monospace" font-size="9" fill="rgba(245, 241, 232, 0.5)">BRAND</text>
  <text x="540" y="370" font-family="monospace" font-size="12" fill="#b8d18a" font-weight="700">Nike</text>

  <rect x="520" y="390" width="220" height="50" rx="6" fill="rgba(255, 255, 255, 0.03)"/>
  <text x="540" y="410" font-family="monospace" font-size="9" fill="rgba(245, 241, 232, 0.5)">BILDQUALITÄT</text>
  <rect x="540" y="417" width="180" height="8" rx="4" fill="rgba(255, 255, 255, 0.05)"/>
  <rect x="540" y="417" width="162" height="8" rx="4" fill="#b8d18a"/>
  <text x="715" y="425" font-family="monospace" font-size="9" fill="#b8d18a" text-anchor="end" font-weight="700">90%</text>

  <!-- Actions -->
  <text x="520" y="470" font-family="sans-serif" font-size="13" fill="#f5f1e8" font-weight="600">Automatische Aktionen</text>

  <rect x="520" y="485" width="220" height="35" rx="6" fill="rgba(184, 209, 138, 0.08)"/>
  <circle cx="535" cy="502" r="4" fill="#b8d18a"/>
  <text x="550" y="507" font-family="sans-serif" font-size="11" fill="#b8d18a">✓ Tags hinzugefügt</text>

  <rect x="520" y="530" width="220" height="35" rx="6" fill="rgba(184, 209, 138, 0.08)"/>
  <circle cx="535" cy="547" r="4" fill="#b8d18a"/>
  <text x="550" y="552" font-family="sans-serif" font-size="11" fill="#b8d18a">✓ In Katalog einsortiert</text>

  <rect x="520" y="575" width="220" height="35" rx="6" fill="rgba(255, 45, 135, 0.08)"/>
  <circle cx="535" cy="592" r="4" fill="#ff2d87"/>
  <text x="550" y="597" font-family="sans-serif" font-size="11" fill="#ff2d87">🔍 Ähnliche Produkte finden</text>

  <rect x="520" y="620" width="220" height="35" rx="6" fill="rgba(255, 255, 255, 0.05)"/>
  <circle cx="535" cy="637" r="4" fill="rgba(245, 241, 232, 0.6)"/>
  <text x="550" y="642" font-family="sans-serif" font-size="11" fill="rgba(245, 241, 232, 0.7)">📝 Beschreibung generieren</text>

  <!-- Right Column -->
  <rect x="780" y="120" width="340" height="200" rx="12" fill="#0d0d0d" stroke="rgba(255, 255, 255, 0.06)" stroke-width="1"/>
  <text x="800" y="145" font-family="monospace" font-size="9" fill="rgba(245, 241, 232, 0.5)">PROCESSING STATS</text>

  <text x="800" y="175" font-family="monospace" font-size="10" fill="rgba(245, 241, 232, 0.5)">Bilder analysiert (MTD)</text>
  <text x="1100" y="175" font-family="monospace" font-size="14" fill="#b8d18a" text-anchor="end" font-weight="700">4.821</text>

  <text x="800" y="205" font-family="monospace" font-size="10" fill="rgba(245, 241, 232, 0.5)">Ø Verarbeitungszeit</text>
  <text x="1100" y="205" font-family="monospace" font-size="14" fill="#ff2d87" text-anchor="end" font-weight="700">1.2s</text>

  <text x="800" y="235" font-family="monospace" font-size="10" fill="rgba(245, 241, 232, 0.5)">Ø Genauigkeit</text>
  <rect x="800" y="242" width="300" height="8" rx="4" fill="rgba(255, 255, 255, 0.05)"/>
  <rect x="800" y="242" width="279" height="8" rx="4" fill="#b8d18a"/>
  <text x="1100" y="260" font-family="monospace" font-size="11" fill="#b8d18a" text-anchor="end" font-weight="700">93%</text>

  <text x="800" y="290" font-family="monospace" font-size="10" fill="rgba(245, 241, 232, 0.5)">Objekte erkannt</text>
  <text x="1100" y="290" font-family="monospace" font-size="14" fill="#b8d18a" text-anchor="end" font-weight="700">18.4k</text>

  <rect x="780" y="340" width="340" height="180" rx="12" fill="#0d0d0d" stroke="rgba(255, 255, 255, 0.06)" stroke-width="1"/>
  <text x="800" y="365" font-family="monospace" font-size="9" fill="rgba(245, 241, 232, 0.5)">USE CASES</text>

  <rect x="800" y="380" width="300" height="30" rx="6" fill="rgba(184, 209, 138, 0.08)"/>
  <circle cx="815" cy="395" r="4" fill="#b8d18a"/>
  <text x="830" y="399" font-family="sans-serif" font-size="11" fill="#f5f1e8">📦 Product Tagging &amp; Categorization</text>

  <rect x="800" y="420" width="300" height="30" rx="6" fill="rgba(184, 209, 138, 0.08)"/>
  <circle cx="815" cy="435" r="4" fill="#b8d18a"/>
  <text x="830" y="439" font-family="sans-serif" font-size="11" fill="#f5f1e8">🎨 Brand &amp; Logo Detection</text>

  <rect x="800" y="460" width="300" height="30" rx="6" fill="rgba(184, 209, 138, 0.08)"/>
  <circle cx="815" cy="475" r="4" fill="#b8d18a"/>
  <text x="830" y="479" font-family="sans-serif" font-size="11" fill="#f5f1e8">🔍 Visual Search &amp; Similarity</text>

  <rect x="780" y="540" width="340" height="140" rx="12" fill="#0d0d0d" stroke="rgba(255, 255, 255, 0.06)" stroke-width="1"/>
  <text x="800" y="565" font-family="monospace" font-size="9" fill="rgba(245, 241, 232, 0.5)">CV MODELS</text>

  <text x="800" y="595" font-family="monospace" font-size="10" fill="rgba(245, 241, 232, 0.5)">Object Detection</text>
  <text x="1100" y="595" font-family="monospace" font-size="12" fill="#f5f1e8" text-anchor="end">YOLO v8</text>

  <text x="800" y="625" font-family="monospace" font-size="10" fill="rgba(245, 241, 232, 0.5)">Image Classification</text>
  <text x="1100" y="625" font-family="monospace" font-size="12" fill="#f5f1e8" text-anchor="end">ResNet-152</text>

  <text x="800" y="655" font-family="monospace" font-size="10" fill="rgba(245, 241, 232, 0.5)">Feature Extraction</text>
  <text x="1100" y="655" font-family="monospace" font-size="12" fill="#f5f1e8" text-anchor="end">CLIP</text>

  <rect x="80" y="700" width="340" height="50" rx="8" fill="rgba(184, 209, 138, 0.1)" stroke="rgba(184, 209, 138, 0.3)" stroke-width="1"/>
  <text x="100" y="730" font-family="sans-serif" font-size="12" fill="#b8d18a">↑ 4.821 Bilder automatisch analysiert</text>

  <rect x="440" y="700" width="340" height="50" rx="8" fill="rgba(255, 45, 135, 0.1)" stroke="rgba(255, 45, 135, 0.3)" stroke-width="1"/>
  <text x="460" y="730" font-family="sans-serif" font-size="12" fill="#ff2d87">⚡ 1.2s Verarbeitungszeit — blitzschnell</text>

  <rect x="800" y="700" width="320" height="50" rx="8" fill="rgba(184, 209, 138, 0.1)" stroke="rgba(184, 209, 138, 0.3)" stroke-width="1"/>
  <text x="820" y="730" font-family="sans-serif" font-size="12" fill="#b8d18a">93% Genauigkeit — sehr präzise</text>

  <text x="80" y="785" font-family="monospace" font-size="10" fill="rgba(245, 241, 232, 0.5)">Features:</text>
  <text x="145" y="785" font-family="monospace" font-size="10" fill="rgba(245, 241, 232, 0.7)">Object Detection · Classification · Brand Recognition · Visual Search · Auto-Tagging · YOLO v8</text>
</svg>
