<svg width="1200" height="800" viewBox="0 0 1200 800" xmlns="http://www.w3.org/2000/svg">
  <rect width="1200" height="800" fill="#0d0d0d"/>
  <defs>
    <filter id="glow">
      <feGaussianBlur stdDeviation="20" result="coloredBlur"/>
      <feMerge>
        <feMergeNode in="coloredBlur"/>
        <feMergeNode in="SourceGraphic"/>
      </feMerge>
    </filter>
  </defs>

  <rect x="40" y="40" width="1120" height="720" rx="18" fill="#1a1a1a" stroke="rgba(255, 45, 135, 0.3)" stroke-width="1" filter="url(#glow)"/>

  <text x="80" y="90" font-family="monospace" font-size="10" fill="#ff2d87" letter-spacing="0.08em">MATURITY ASSESSMENT • DATA &amp; AI READINESS</text>

  <rect x="80" y="120" width="680" height="560" rx="12" fill="#0d0d0d" stroke="rgba(255, 255, 255, 0.06)" stroke-width="1"/>

  <text x="100" y="150" font-family="sans-serif" font-size="14" fill="#f5f1e8" font-weight="600">Digital Maturity Radar – Aktueller Stand</text>

  <rect x="540" y="135" width="180" height="24" rx="6" fill="rgba(184, 209, 138, 0.15)"/>
  <circle cx="555" cy="147" r="3" fill="#b8d18a"/>
  <text x="565" y="151" font-family="monospace" font-size="10" fill="#b8d18a">Assessment abgeschlossen</text>

  <!-- Overall Score -->
  <rect x="100" y="170" width="640" height="85" rx="8" fill="rgba(255, 45, 135, 0.08)"/>
  <text x="120" y="195" font-family="monospace" font-size="9" fill="rgba(245, 241, 232, 0.5)">GESAMTSCORE</text>
  <text x="120" y="230" font-family="sans-serif" font-size="32" fill="#ff2d87" font-weight="700">3.2 / 5.0</text>
  <text x="120" y="248" font-family="monospace" font-size="11" fill="#ff2d87">Fortgeschritten • Potenzial vorhanden</text>

  <!-- Radar Chart -->
  <g transform="translate(370, 350)">
    <!-- Background circle guides -->
    <circle cx="0" cy="0" r="120" fill="none" stroke="rgba(255, 255, 255, 0.05)" stroke-width="1"/>
    <circle cx="0" cy="0" r="90" fill="none" stroke="rgba(255, 255, 255, 0.05)" stroke-width="1"/>
    <circle cx="0" cy="0" r="60" fill="none" stroke="rgba(255, 255, 255, 0.05)" stroke-width="1"/>
    <circle cx="0" cy="0" r="30" fill="none" stroke="rgba(255, 255, 255, 0.05)" stroke-width="1"/>

    <!-- Axis lines -->
    <line x1="0" y1="0" x2="0" y2="-120" stroke="rgba(255, 255, 255, 0.1)" stroke-width="1"/>
    <line x1="0" y1="0" x2="103.9" y2="-60" stroke="rgba(255, 255, 255, 0.1)" stroke-width="1"/>
    <line x1="0" y1="0" x2="103.9" y2="60" stroke="rgba(255, 255, 255, 0.1)" stroke-width="1"/>
    <line x1="0" y1="0" x2="0" y2="120" stroke="rgba(255, 255, 255, 0.1)" stroke-width="1"/>
    <line x1="0" y1="0" x2="-103.9" y2="60" stroke="rgba(255, 255, 255, 0.1)" stroke-width="1"/>
    <line x1="0" y1="0" x2="-103.9" y2="-60" stroke="rgba(255, 255, 255, 0.1)" stroke-width="1"/>

    <!-- Data polygon (current state) -->
    <polygon points="0,-96 62.3,-36 62.3,36 0,72 -62.3,36 -83.1,-48"
             fill="rgba(255, 45, 135, 0.2)"
             stroke="#ff2d87"
             stroke-width="2"/>

    <!-- Data points -->
    <circle cx="0" cy="-96" r="4" fill="#ff2d87"/>
    <circle cx="62.3" cy="-36" r="4" fill="#ff2d87"/>
    <circle cx="62.3" cy="36" r="4" fill="#ff2d87"/>
    <circle cx="0" cy="72" r="4" fill="#ff2d87"/>
    <circle cx="-62.3" cy="36" r="4" fill="#ff2d87"/>
    <circle cx="-83.1" cy="-48" r="4" fill="#ff2d87"/>

    <!-- Labels -->
    <text x="0" y="-135" font-family="monospace" font-size="10" fill="#f5f1e8" text-anchor="middle">Daten (4.0)</text>
    <text x="125" y="-50" font-family="monospace" font-size="10" fill="#f5f1e8" text-anchor="start">Tech (3.0)</text>
    <text x="125" y="40" font-family="monospace" font-size="10" fill="#f5f1e8" text-anchor="start">People (3.0)</text>
    <text x="0" y="140" font-family="monospace" font-size="10" fill="#f5f1e8" text-anchor="middle">Prozesse (3.0)</text>
    <text x="-125" y="40" font-family="monospace" font-size="10" fill="#f5f1e8" text-anchor="end">Kultur (3.0)</text>
    <text x="-125" y="-50" font-family="monospace" font-size="10" fill="#f5f1e8" text-anchor="end">Strategie (3.5)</text>
  </g>

  <!-- Maturity Breakdown -->
  <text x="100" y="550" font-family="sans-serif" font-size="13" fill="#f5f1e8" font-weight="600">Dimensionen im Detail</text>

  <rect x="100" y="565" width="300" height="35" rx="6" fill="rgba(184, 209, 138, 0.08)"/>
  <text x="120" y="587" font-family="sans-serif" font-size="11" fill="#f5f1e8">Daten &amp; Analytics</text>
  <text x="380" y="587" font-family="monospace" font-size="11" fill="#b8d18a" text-anchor="end" font-weight="700">4.0 / 5.0</text>

  <rect x="440" y="565" width="300" height="35" rx="6" fill="rgba(255, 45, 135, 0.08)"/>
  <text x="460" y="587" font-family="sans-serif" font-size="11" fill="#f5f1e8">Technologie &amp; Tools</text>
  <text x="720" y="587" font-family="monospace" font-size="11" fill="#ff2d87" text-anchor="end" font-weight="700">3.0 / 5.0</text>

  <rect x="100" y="610" width="300" height="35" rx="6" fill="rgba(255, 45, 135, 0.08)"/>
  <text x="120" y="632" font-family="sans-serif" font-size="11" fill="#f5f1e8">People &amp; Skills</text>
  <text x="380" y="632" font-family="monospace" font-size="11" fill="#ff2d87" text-anchor="end" font-weight="700">3.0 / 5.0</text>

  <rect x="440" y="610" width="300" height="35" rx="6" fill="rgba(255, 45, 135, 0.08)"/>
  <text x="460" y="632" font-family="sans-serif" font-size="11" fill="#f5f1e8">Prozesse &amp; Governance</text>
  <text x="720" y="632" font-family="monospace" font-size="11" fill="#ff2d87" text-anchor="end" font-weight="700">3.0 / 5.0</text>

  <!-- Right Column -->
  <rect x="780" y="120" width="340" height="200" rx="12" fill="#0d0d0d" stroke="rgba(255, 255, 255, 0.06)" stroke-width="1"/>
  <text x="800" y="145" font-family="monospace" font-size="9" fill="rgba(245, 241, 232, 0.5)">MATURITY LEVELS</text>

  <rect x="800" y="165" width="300" height="30" rx="6" fill="rgba(255, 255, 255, 0.03)"/>
  <text x="820" y="184" font-family="monospace" font-size="10" fill="rgba(245, 241, 232, 0.5)">Level 1:</text>
  <text x="1080" y="184" font-family="sans-serif" font-size="10" fill="rgba(245, 241, 232, 0.5)" text-anchor="end">Initial</text>

  <rect x="800" y="200" width="300" height="30" rx="6" fill="rgba(255, 255, 255, 0.03)"/>
  <text x="820" y="219" font-family="monospace" font-size="10" fill="rgba(245, 241, 232, 0.5)">Level 2:</text>
  <text x="1080" y="219" font-family="sans-serif" font-size="10" fill="rgba(245, 241, 232, 0.5)" text-anchor="end">Repeatable</text>

  <rect x="800" y="235" width="300" height="30" rx="6" fill="rgba(255, 45, 135, 0.1)"/>
  <text x="820" y="254" font-family="monospace" font-size="10" fill="#ff2d87">Level 3:</text>
  <text x="1080" y="254" font-family="sans-serif" font-size="10" fill="#ff2d87" text-anchor="end">Defined ← Aktuell</text>

  <rect x="800" y="270" width="300" height="30" rx="6" fill="rgba(255, 255, 255, 0.03)"/>
  <text x="820" y="289" font-family="monospace" font-size="10" fill="rgba(245, 241, 232, 0.5)">Level 4:</text>
  <text x="1080" y="289" font-family="sans-serif" font-size="10" fill="rgba(245, 241, 232, 0.5)" text-anchor="end">Managed</text>

  <rect x="780" y="340" width="340" height="180" rx="12" fill="#0d0d0d" stroke="rgba(255, 255, 255, 0.06)" stroke-width="1"/>
  <text x="800" y="365" font-family="monospace" font-size="9" fill="rgba(245, 241, 232, 0.5)">TOP STÄRKEN</text>

  <rect x="800" y="380" width="300" height="30" rx="6" fill="rgba(184, 209, 138, 0.08)"/>
  <circle cx="815" cy="395" r="4" fill="#b8d18a"/>
  <text x="830" y="399" font-family="sans-serif" font-size="11" fill="#b8d18a">✓ Datenqualität sehr gut</text>

  <rect x="800" y="420" width="300" height="30" rx="6" fill="rgba(184, 209, 138, 0.08)"/>
  <circle cx="815" cy="435" r="4" fill="#b8d18a"/>
  <text x="830" y="439" font-family="sans-serif" font-size="11" fill="#b8d18a">✓ Analytics-Infrastruktur solid</text>

  <rect x="800" y="460" width="300" height="30" rx="6" fill="rgba(184, 209, 138, 0.08)"/>
  <circle cx="815" cy="475" r="4" fill="#b8d18a"/>
  <text x="830" y="479" font-family="sans-serif" font-size="11" fill="#b8d18a">✓ Strategische Vision vorhanden</text>

  <rect x="780" y="540" width="340" height="140" rx="12" fill="#0d0d0d" stroke="rgba(255, 255, 255, 0.06)" stroke-width="1"/>
  <text x="800" y="565" font-family="monospace" font-size="9" fill="rgba(245, 241, 232, 0.5)">HANDLUNGSFELDER</text>

  <rect x="800" y="580" width="300" height="30" rx="6" fill="rgba(255, 45, 135, 0.08)"/>
  <circle cx="815" cy="595" r="4" fill="#ff2d87"/>
  <text x="830" y="599" font-family="sans-serif" font-size="11" fill="#ff2d87">! Skills-Lücke schließen</text>

  <rect x="800" y="620" width="300" height="30" rx="6" fill="rgba(255, 45, 135, 0.08)"/>
  <circle cx="815" cy="635" r="4" fill="#ff2d87"/>
  <text x="830" y="639" font-family="sans-serif" font-size="11" fill="#ff2d87">! Prozesse standardisieren</text>

  <rect x="80" y="700" width="340" height="50" rx="8" fill="rgba(255, 45, 135, 0.1)" stroke="rgba(255, 45, 135, 0.3)" stroke-width="1"/>
  <text x="100" y="730" font-family="sans-serif" font-size="12" fill="#ff2d87">↑ 3.2/5.0 Gesamtscore — Fortgeschritten</text>

  <rect x="440" y="700" width="340" height="50" rx="8" fill="rgba(184, 209, 138, 0.1)" stroke="rgba(184, 209, 138, 0.3)" stroke-width="1"/>
  <text x="460" y="730" font-family="sans-serif" font-size="12" fill="#b8d18a">⚡ 6 Dimensionen analysiert</text>

  <rect x="800" y="700" width="320" height="50" rx="8" fill="rgba(245, 193, 78, 0.1)" stroke="rgba(245, 193, 78, 0.3)" stroke-width="1"/>
  <text x="820" y="730" font-family="sans-serif" font-size="12" fill="#f5c14e">Level 3 → Level 4 erreichbar</text>

  <text x="80" y="785" font-family="monospace" font-size="10" fill="rgba(245, 241, 232, 0.5)">Bereiche:</text>
  <text x="145" y="785" font-family="monospace" font-size="10" fill="rgba(245, 241, 232, 0.7)">Daten · Technologie · People · Prozesse · Kultur · Strategie · 6-Dimensionen-Radar</text>
</svg>
