<svg xmlns="http://www.w3.org/2000/svg" width="1200" height="675" viewBox="0 0 1200 675"><defs><linearGradient id="a" x1="0%" x2="100%" y1="0%" y2="100%"><stop offset="0%" style="stop-color:#0a0a0c;stop-opacity:1"/><stop offset="100%" style="stop-color:#121216;stop-opacity:1"/></linearGradient></defs><path fill="url(#a)" d="M0 0h1200v675H0z"/><text x="40" y="35" fill="#ff2d7a" font-family="monospace" font-size="12" letter-spacing="2">STRATEGY ROADMAP TIMELINE</text><rect width="1120" height="540" x="40" y="70" fill="#1c1c22" stroke="rgba(245,242,236,0.08)" rx="8"/><text x="60" y="100" fill="#9a968c" font-family="monospace" font-size="11" letter-spacing="1">3-YEAR DIGITAL TRANSFORMATION ROADMAP</text><path stroke="rgba(245,242,236,0.2)" stroke-width="2" d="M100 200h1000"/><circle cx="200" cy="200" r="8" fill="#ff2d7a"/><circle cx="450" cy="200" r="8" fill="#8fa373"/><circle cx="700" cy="200" r="8" fill="#d1a85c"/><circle cx="950" cy="200" r="8" fill="#9a968c"/><text x="200" y="185" fill="#ff2d7a" font-size="10" font-weight="bold" text-anchor="middle">Q1-Q2 2024</text><text x="450" y="185" fill="#8fa373" font-size="10" font-weight="bold" text-anchor="middle">Q3-Q4 2024</text><text x="700" y="185" fill="#d1a85c" font-size="10" font-weight="bold" text-anchor="middle">2025</text><text x="950" y="185" fill="#9a968c" font-size="10" font-weight="bold" text-anchor="middle">2026</text><rect width="280" height="320" x="100" y="230" fill="rgba(255,45,122,0.08)" stroke="rgba(255,45,122,0.2)" rx="6"/><text x="120" y="260" fill="#ff2d7a" font-size="13" font-weight="bold">Phase 1: Foundation</text><rect width="240" height="35" x="120" y="275" fill="rgba(245,242,236,0.04)" rx="4"/><circle cx="135" cy="292" r="5" fill="#8fa373"/><text x="150" y="289" fill="#f5f2ec" font-size="10">Data audit &amp; assessment</text><text x="150" y="302" fill="#9a968c" font-size="8">Weeks 1-4</text><rect width="240" height="35" x="120" y="320" fill="rgba(245,242,236,0.04)" rx="4"/><circle cx="135" cy="337" r="5" fill="#8fa373"/><text x="150" y="334" fill="#f5f2ec" font-size="10">Define data governance</text><text x="150" y="347" fill="#9a968c" font-size="8">Weeks 5-8</text><rect width="240" height="35" x="120" y="365" fill="rgba(245,242,236,0.04)" rx="4"/><circle cx="135" cy="382" r="5" fill="#d1a85c"/><text x="150" y="379" fill="#f5f2ec" font-size="10">Build data warehouse</text><text x="150" y="392" fill="#9a968c" font-size="8">Weeks 9-16</text><rect width="240" height="35" x="120" y="410" fill="rgba(245,242,236,0.04)" rx="4"/><circle cx="135" cy="427" r="5" fill="rgba(245,242,236,0.2)"/><text x="150" y="424" fill="#f5f2ec" font-size="10">Initial integrations</text><text x="150" y="437" fill="#9a968c" font-size="8">Weeks 17-24</text><text x="120" y="470" fill="#9a968c" font-size="9">Key Milestone:</text><text x="120" y="485" fill="#ff2d7a" font-size="10" font-weight="bold">✓ Data foundation ready</text><text x="120" y="505" fill="#8fa373" font-size="9">Budget: €120k</text><text x="120" y="520" fill="#9a968c" font-size="8">Team: 4 people</text><rect width="280" height="320" x="400" y="230" fill="rgba(143,163,115,0.08)" stroke="rgba(143,163,115,0.2)" rx="6"/><text x="420" y="260" fill="#8fa373" font-size="13" font-weight="bold">Phase 2: Implementation</text><rect width="240" height="35" x="420" y="275" fill="rgba(245,242,236,0.04)" rx="4"/><circle cx="435" cy="292" r="5" fill="rgba(245,242,236,0.2)"/><text x="450" y="289" fill="#f5f2ec" font-size="10">Deploy BI dashboards</text><text x="450" y="302" fill="#9a968c" font-size="8">Q3 2024</text><rect width="240" height="35" x="420" y="320" fill="rgba(245,242,236,0.04)" rx="4"/><circle cx="435" cy="337" r="5" fill="rgba(245,242,236,0.2)"/><text x="450" y="334" fill="#f5f2ec" font-size="10">Automate reporting</text><text x="450" y="347" fill="#9a968c" font-size="8">Q3 2024</text><rect width="240" height="35" x="420" y="365" fill="rgba(245,242,236,0.04)" rx="4"/><circle cx="435" cy="382" r="5" fill="rgba(245,242,236,0.2)"/><text x="450" y="379" fill="#f5f2ec" font-size="10">AI pilot projects</text><text x="450" y="392" fill="#9a968c" font-size="8">Q4 2024</text><rect width="240" height="35" x="420" y="410" fill="rgba(245,242,236,0.04)" rx="4"/><circle cx="435" cy="427" r="5" fill="rgba(245,242,236,0.2)"/><text x="450" y="424" fill="#f5f2ec" font-size="10">Team training</text><text x="450" y="437" fill="#9a968c" font-size="8">Q4 2024</text><text x="420" y="470" fill="#9a968c" font-size="9">Key Milestone:</text><text x="420" y="485" fill="#8fa373" font-size="10" font-weight="bold">→ Analytics operational</text><text x="420" y="505" fill="#9a968c" font-size="9">Budget: €180k</text><text x="420" y="520" fill="#9a968c" font-size="8">Team: 6 people</text><rect width="210" height="320" x="700" y="230" fill="rgba(209,168,92,0.08)" stroke="rgba(209,168,92,0.2)" rx="6"/><text x="720" y="260" fill="#d1a85c" font-size="13" font-weight="bold">Phase 3: Scale</text><rect width="170" height="30" x="720" y="275" fill="rgba(245,242,236,0.04)" rx="4"/><text x="735" y="294" fill="#f5f2ec" font-size="9">Advanced AI models</text><rect width="170" height="30" x="720" y="315" fill="rgba(245,242,236,0.04)" rx="4"/><text x="735" y="334" fill="#f5f2ec" font-size="9">Full automation</text><rect width="170" height="30" x="720" y="355" fill="rgba(245,242,236,0.04)" rx="4"/><text x="735" y="374" fill="#f5f2ec" font-size="9">Scale to all depts</text><rect width="170" height="30" x="720" y="395" fill="rgba(245,242,236,0.04)" rx="4"/><text x="735" y="414" fill="#f5f2ec" font-size="9">Global rollout</text><text x="720" y="450" fill="#9a968c" font-size="9">Key Milestone:</text><text x="720" y="465" fill="#d1a85c" font-size="10" font-weight="bold">→ Enterprise-wide</text><text x="720" y="485" fill="#9a968c" font-size="9">Budget: €250k</text><text x="720" y="500" fill="#9a968c" font-size="8">Team: 8 people</text><rect width="210" height="320" x="930" y="230" fill="rgba(154,150,140,0.08)" stroke="rgba(154,150,140,0.2)" rx="6"/><text x="950" y="260" fill="#9a968c" font-size="13" font-weight="bold">Phase 4: Optimize</text><rect width="170" height="30" x="950" y="275" fill="rgba(245,242,236,0.04)" rx="4"/><text x="965" y="294" fill="#f5f2ec" font-size="9">Continuous improve</text><rect width="170" height="30" x="950" y="315" fill="rgba(245,242,236,0.04)" rx="4"/><text x="965" y="334" fill="#f5f2ec" font-size="9">Innovation lab</text><rect width="170" height="30" x="950" y="355" fill="rgba(245,242,236,0.04)" rx="4"/><text x="965" y="374" fill="#f5f2ec" font-size="9">New use cases</text><text x="950" y="420" fill="#9a968c" font-size="9">Key Milestone:</text><text x="950" y="435" fill="#9a968c" font-size="10">→ Data-driven culture</text><text x="950" y="455" fill="#9a968c" font-size="9">Budget: TBD</text><rect width="1120" height="35" x="40" y="625" fill="rgba(255,45,122,0.06)" stroke="rgba(255,45,122,0.2)" rx="6"/><text x="60" y="647" fill="#9a968c" font-size="11">Roadmap Features:</text><text x="240" y="647" fill="#f5f2ec" font-size="11">Phased Approach</text><text x="420" y="647" fill="#f5f2ec" font-size="11">Clear Milestones</text><text x="600" y="647" fill="#f5f2ec" font-size="11">Budget Planning</text><text x="800" y="647" fill="#f5f2ec" font-size="11">Resource Allocation</text></svg>