<svg xmlns="http://www.w3.org/2000/svg" width="1200" height="800" viewBox="0 0 1200 800"><path fill="#0d0d0d" d="M0 0h1200v800H0z"/><defs><filter id="a"><feGaussianBlur result="coloredBlur" stdDeviation="20"/><feMerge><feMergeNode in="coloredBlur"/><feMergeNode in="SourceGraphic"/></feMerge></filter></defs><rect width="1120" height="720" x="40" y="40" fill="#1a1a1a" stroke="rgba(255, 45, 135, 0.3)" filter="url(#a)" rx="18"/><text x="80" y="90" fill="#ff2d87" font-family="monospace" font-size="10" letter-spacing=".08em">E-COMMERCE PLATFORM</text><rect width="680" height="560" x="80" y="120" fill="#0d0d0d" stroke="rgba(255, 255, 255, 0.06)" rx="12"/><rect width="640" height="45" x="100" y="140" fill="rgba(255, 255, 255, 0.03)" rx="8"/><rect width="100" height="20" x="120" y="153" fill="rgba(255, 45, 135, 0.2)" rx="4"/><text x="130" y="168" fill="#ff2d87" font-family="sans-serif" font-size="12" font-weight="700">SHOP</text><rect width="280" height="20" x="250" y="153" fill="rgba(255, 255, 255, 0.05)" rx="4"/><text x="260" y="168" fill="rgba(245, 241, 232, 0.4)" font-family="sans-serif" font-size="11">Suche nach Produkten...</text><rect width="40" height="20" x="690" y="153" fill="rgba(255, 45, 135, 0.2)" rx="4"/><text x="710" y="168" fill="#ff2d87" font-family="sans-serif" font-size="11" text-anchor="middle">🛒 3</text><rect width="640" height="140" x="100" y="200" fill="rgba(255, 45, 135, 0.08)" rx="8"/><text x="130" y="250" fill="#f5f1e8" font-family="sans-serif" font-size="24" font-weight="700">Sommer Sale 2026</text><text x="130" y="280" fill="rgba(245, 241, 232, 0.7)" font-family="sans-serif" font-size="14">Bis zu 40% Rabatt auf ausgewählte Artikel</text><rect width="150" height="35" x="130" y="295" fill="rgba(255, 45, 135, 0.3)" rx="6"/><text x="205" y="319" fill="#ff2d87" font-family="sans-serif" font-size="13" font-weight="600" text-anchor="middle">Jetzt shoppen →</text><text x="100" y="365" fill="#f5f1e8" font-family="sans-serif" font-size="14" font-weight="600">Beliebte Produkte</text><rect width="200" height="280" x="100" y="380" fill="rgba(255, 255, 255, 0.03)" rx="8"/><rect width="170" height="140" x="115" y="395" fill="rgba(255, 255, 255, 0.05)" rx="6"/><text x="200" y="475" fill="rgba(245, 241, 232, 0.3)" font-family="sans-serif" font-size="32" text-anchor="middle">📱</text><text x="125" y="555" fill="#f5f1e8" font-family="sans-serif" font-size="13" font-weight="600">Premium Smartphone</text><text x="125" y="575" fill="rgba(245, 241, 232, 0.6)" font-family="monospace" font-size="11">Neueste Generation</text><text x="125" y="605" fill="#ff2d87" font-family="sans-serif" font-size="18" font-weight="700">€899</text><rect width="160" height="30" x="125" y="620" fill="rgba(184, 209, 138, 0.15)" rx="6"/><text x="205" y="641" fill="#b8d18a" font-family="sans-serif" font-size="11" font-weight="600" text-anchor="middle">In den Warenkorb</text><rect width="200" height="280" x="320" y="380" fill="rgba(255, 255, 255, 0.03)" rx="8"/><rect width="170" height="140" x="335" y="395" fill="rgba(255, 255, 255, 0.05)" rx="6"/><text x="420" y="475" fill="rgba(245, 241, 232, 0.3)" font-family="sans-serif" font-size="32" text-anchor="middle">⌚</text><text x="345" y="555" fill="#f5f1e8" font-family="sans-serif" font-size="13" font-weight="600">Smartwatch Pro</text><text x="345" y="575" fill="rgba(245, 241, 232, 0.6)" font-family="monospace" font-size="11">Fitness &amp; Health</text><text x="345" y="605" fill="#ff2d87" font-family="sans-serif" font-size="18" font-weight="700">€349</text><rect width="160" height="30" x="345" y="620" fill="rgba(184, 209, 138, 0.15)" rx="6"/><text x="425" y="641" fill="#b8d18a" font-family="sans-serif" font-size="11" font-weight="600" text-anchor="middle">In den Warenkorb</text><rect width="200" height="280" x="540" y="380" fill="rgba(255, 255, 255, 0.03)" rx="8"/><rect width="170" height="140" x="555" y="395" fill="rgba(255, 255, 255, 0.05)" rx="6"/><text x="640" y="475" fill="rgba(245, 241, 232, 0.3)" font-family="sans-serif" font-size="32" text-anchor="middle">🎧</text><rect width="60" height="20" x="565" y="400" fill="rgba(255, 45, 135, 0.3)" rx="4"/><text x="595" y="414" fill="#ff2d87" font-family="monospace" font-size="9" font-weight="700" text-anchor="middle">-25%</text><text x="565" y="555" fill="#f5f1e8" font-family="sans-serif" font-size="13" font-weight="600">Noise Cancel Kopfhörer</text><text x="565" y="575" fill="rgba(245, 241, 232, 0.6)" font-family="monospace" font-size="11">Premium Audio</text><text x="565" y="595" fill="rgba(245, 241, 232, 0.4)" font-family="monospace" font-size="11" style="text-decoration:line-through">€299</text><text x="625" y="605" fill="#b8d18a" font-family="sans-serif" font-size="18" font-weight="700">€224</text><rect width="160" height="30" x="565" y="620" fill="rgba(184, 209, 138, 0.15)" rx="6"/><text x="645" y="641" fill="#b8d18a" font-family="sans-serif" font-size="11" font-weight="600" text-anchor="middle">In den Warenkorb</text><rect width="340" height="280" x="780" y="120" fill="#0d0d0d" stroke="rgba(255, 255, 255, 0.06)" rx="12"/><text x="800" y="145" fill="rgba(245, 241, 232, 0.5)" font-family="monospace" font-size="9">WARENKORB (3 ARTIKEL)</text><rect width="300" height="50" x="800" y="160" fill="rgba(255, 255, 255, 0.03)" rx="6"/><text x="820" y="180" fill="#f5f1e8" font-family="sans-serif" font-size="11" font-weight="600">Premium Smartphone</text><text x="820" y="197" fill="rgba(245, 241, 232, 0.5)" font-family="monospace" font-size="10">1× €899</text><text x="1080" y="188" fill="#ff2d87" font-family="monospace" font-size="12" font-weight="700" text-anchor="end">€899</text><rect width="300" height="50" x="800" y="220" fill="rgba(255, 255, 255, 0.03)" rx="6"/><text x="820" y="240" fill="#f5f1e8" font-family="sans-serif" font-size="11" font-weight="600">Smartwatch Pro</text><text x="820" y="257" fill="rgba(245, 241, 232, 0.5)" font-family="monospace" font-size="10">1× €349</text><text x="1080" y="248" fill="#ff2d87" font-family="monospace" font-size="12" font-weight="700" text-anchor="end">€349</text><rect width="300" height="50" x="800" y="280" fill="rgba(255, 255, 255, 0.03)" rx="6"/><text x="820" y="300" fill="#f5f1e8" font-family="sans-serif" font-size="11" font-weight="600">Noise Cancel Kopfhörer</text><text x="820" y="317" fill="rgba(245, 241, 232, 0.5)" font-family="monospace" font-size="10">1× €224</text><text x="1080" y="308" fill="#b8d18a" font-family="monospace" font-size="12" font-weight="700" text-anchor="end">€224</text><text x="800" y="360" fill="rgba(245, 241, 232, 0.5)" font-family="monospace" font-size="10">Zwischensumme</text><text x="1100" y="360" fill="#f5f1e8" font-family="monospace" font-size="12" text-anchor="end">€1.472</text><text x="800" y="380" fill="rgba(245, 241, 232, 0.5)" font-family="monospace" font-size="10">Versand</text><text x="1100" y="380" fill="#b8d18a" font-family="monospace" font-size="12" text-anchor="end">Gratis</text><path fill="rgba(255, 255, 255, 0.1)" d="M800 385h300v1H800z"/><text x="800" y="405" fill="#f5f1e8" font-family="sans-serif" font-size="12" font-weight="600">Gesamt</text><text x="1100" y="405" fill="#ff2d87" font-family="sans-serif" font-size="18" font-weight="700" text-anchor="end">€1.472</text><rect width="340" height="140" x="780" y="420" fill="#0d0d0d" stroke="rgba(255, 255, 255, 0.06)" rx="12"/><text x="800" y="445" fill="rgba(245, 241, 232, 0.5)" font-family="monospace" font-size="9">ZAHLUNGSMETHODEN</text><rect width="300" height="30" x="800" y="460" fill="rgba(184, 209, 138, 0.08)" rx="6"/><text x="820" y="481" fill="#b8d18a" font-family="sans-serif" font-size="11" font-weight="600">💳 Kreditkarte</text><rect width="300" height="30" x="800" y="500" fill="rgba(255, 255, 255, 0.03)" rx="6"/><text x="820" y="521" fill="rgba(245, 241, 232, 0.7)" font-family="sans-serif" font-size="11">🏦 SEPA-Lastschrift</text><rect width="340" height="100" x="780" y="580" fill="#0d0d0d" stroke="rgba(255, 255, 255, 0.06)" rx="12"/><rect width="300" height="45" x="800" y="600" fill="rgba(255, 45, 135, 0.2)" stroke="rgba(255, 45, 135, 0.4)" stroke-width="2" rx="6"/><text x="950" y="628" fill="#ff2d87" font-family="sans-serif" font-size="14" font-weight="700" text-anchor="middle">Jetzt kaufen • €1.472</text><text x="800" y="670" fill="rgba(245, 241, 232, 0.4)" font-family="monospace" font-size="9">🔒 Sichere Zahlung • SSL-verschlüsselt</text><rect width="340" height="50" x="80" y="700" fill="rgba(184, 209, 138, 0.1)" stroke="rgba(184, 209, 138, 0.3)" rx="8"/><text x="100" y="730" fill="#b8d18a" font-family="sans-serif" font-size="12">✓ Gratis Versand ab €50 — du sparst €9,90</text><rect width="340" height="50" x="440" y="700" fill="rgba(255, 45, 135, 0.1)" stroke="rgba(255, 45, 135, 0.3)" rx="8"/><text x="460" y="730" fill="#ff2d87" font-family="sans-serif" font-size="12">🎉 25% Rabatt auf Kopfhörer — du sparst €75</text><rect width="320" height="50" x="800" y="700" fill="rgba(245, 193, 78, 0.1)" stroke="rgba(245, 193, 78, 0.3)" rx="8"/><text x="820" y="730" fill="#f5c14e" font-family="sans-serif" font-size="12">⚡ Express-Versand verfügbar (+€14,90)</text><text x="80" y="785" fill="rgba(245, 241, 232, 0.5)" font-family="monospace" font-size="10">Features:</text><text x="145" y="785" fill="rgba(245, 241, 232, 0.7)" font-family="monospace" font-size="10">Product Catalog · Shopping Cart · Checkout · Payment Integration · Shipping Options</text></svg>