<svg xmlns="http://www.w3.org/2000/svg" width="1200" height="675" viewBox="0 0 1200 675"><defs><linearGradient id="a" x1="0%" x2="100%" y1="0%" y2="100%"><stop offset="0%" style="stop-color:#0a0a0c;stop-opacity:1"/><stop offset="100%" style="stop-color:#121216;stop-opacity:1"/></linearGradient></defs><path fill="url(#a)" d="M0 0h1200v675H0z"/><text x="40" y="35" fill="#ff2d7a" font-family="monospace" font-size="12" letter-spacing="2">API DOCUMENTATION INTERFACE</text><rect width="260" height="540" x="40" y="70" fill="#1c1c22" stroke="rgba(245,242,236,0.08)" rx="8"/><text x="70" y="105" fill="#ff2d7a" font-size="16" font-weight="bold">API Docs</text><text x="70" y="122" fill="#9a968c" font-size="10">v2.1.0</text><rect width="220" height="32" x="60" y="140" fill="rgba(245,242,236,0.06)" rx="6"/><text x="75" y="162" fill="#9a968c" font-size="10">🔍 Suche...</text><text x="70" y="200" fill="#5e5a52" font-family="monospace" font-size="10">GETTING STARTED</text><text x="70" y="225" fill="#9a968c" font-size="11">Introduction</text><text x="70" y="245" fill="#9a968c" font-size="11">Authentication</text><text x="70" y="265" fill="#9a968c" font-size="11">Rate Limits</text><text x="70" y="300" fill="#5e5a52" font-family="monospace" font-size="10">ENDPOINTS</text><text x="70" y="325" fill="#ff2d7a" font-size="11" font-weight="bold">Users</text><text x="90" y="345" fill="#ff2d7a" font-size="10">GET /users</text><text x="90" y="363" fill="#9a968c" font-size="10">POST /users</text><text x="90" y="381" fill="#9a968c" font-size="10">GET /users/:id</text><text x="90" y="399" fill="#9a968c" font-size="10">PUT /users/:id</text><text x="70" y="425" fill="#9a968c" font-size="11">Products</text><text x="70" y="445" fill="#9a968c" font-size="11">Orders</text><text x="70" y="465" fill="#9a968c" font-size="11">Webhooks</text><text x="70" y="500" fill="#5e5a52" font-family="monospace" font-size="10">RESOURCES</text><text x="70" y="525" fill="#9a968c" font-size="11">Code Examples</text><text x="70" y="545" fill="#9a968c" font-size="11">Changelog</text><text x="70" y="565" fill="#9a968c" font-size="11">Support</text><rect width="840" height="540" x="320" y="70" fill="#1c1c22" stroke="rgba(245,242,236,0.08)" rx="8"/><text x="350" y="110" fill="#f5f2ec" font-size="18" font-weight="bold">GET /api/v2/users</text><text x="350" y="135" fill="#9a968c" font-size="12">Retrieve a list of users from your organization</text><rect width="50" height="22" x="650" y="95" fill="rgba(143,163,115,0.12)" rx="4"/><text x="660" y="110" fill="#8fa373" font-family="monospace" font-size="10">GET</text><rect width="780" height="50" x="350" y="160" fill="rgba(245,242,236,0.04)" stroke="rgba(245,242,236,0.08)" rx="6"/><text x="370" y="190" fill="#ff2d7a" font-family="monospace" font-size="12">https://api.yourcompany.com/v2/users</text><text x="350" y="240" fill="#f5f2ec" font-size="14" font-weight="bold">Parameters</text><rect width="780" height="100" x="350" y="255" fill="rgba(245,242,236,0.02)" stroke="rgba(245,242,236,0.08)" rx="6"/><text x="370" y="280" fill="#5e5a52" font-family="monospace" font-size="10">NAME</text><text x="520" y="280" fill="#5e5a52" font-family="monospace" font-size="10">TYPE</text><text x="650" y="280" fill="#5e5a52" font-family="monospace" font-size="10">REQUIRED</text><text x="800" y="280" fill="#5e5a52" font-family="monospace" font-size="10">DESCRIPTION</text><text x="370" y="305" fill="#ff2d7a" font-family="monospace" font-size="10">page</text><text x="520" y="305" fill="#9a968c" font-size="10">integer</text><text x="650" y="305" fill="#9a968c" font-size="10">No</text><text x="800" y="305" fill="#9a968c" font-size="10">Page number (default: 1)</text><text x="370" y="330" fill="#ff2d7a" font-family="monospace" font-size="10">limit</text><text x="520" y="330" fill="#9a968c" font-size="10">integer</text><text x="650" y="330" fill="#9a968c" font-size="10">No</text><text x="800" y="330" fill="#9a968c" font-size="10">Results per page (max: 100)</text><text x="350" y="385" fill="#f5f2ec" font-size="14" font-weight="bold">Response</text><rect width="100" height="24" x="1020" y="367" fill="rgba(143,163,115,0.12)" rx="4"/><text x="1040" y="384" fill="#8fa373" font-family="monospace" font-size="10">200 OK</text><rect width="780" height="190" x="350" y="400" fill="#0a0a0c" stroke="rgba(245,242,236,0.08)" rx="6"/><text x="370" y="425" fill="#9a968c" font-family="monospace" font-size="10">{</text><text x="390" y="445" fill="#d1a85c" font-family="monospace" font-size="10">&quot;status&quot;</text><text x="470" y="445" fill="#9a968c" font-family="monospace" font-size="10">:</text><text x="490" y="445" fill="#8fa373" font-family="monospace" font-size="10">&quot;success&quot;</text><text x="570" y="445" fill="#9a968c" font-family="monospace" font-size="10">,</text><text x="390" y="465" fill="#d1a85c" font-family="monospace" font-size="10">&quot;data&quot;</text><text x="440" y="465" fill="#9a968c" font-family="monospace" font-size="10">: [</text><text x="410" y="485" fill="#9a968c" font-family="monospace" font-size="10">{</text><text x="430" y="505" fill="#d1a85c" font-family="monospace" font-size="10">&quot;id&quot;</text><text x="470" y="505" fill="#9a968c" font-family="monospace" font-size="10">:</text><text x="490" y="505" fill="#ff2d7a" font-family="monospace" font-size="10">1</text><text x="510" y="505" fill="#9a968c" font-family="monospace" font-size="10">,</text><text x="430" y="525" fill="#d1a85c" font-family="monospace" font-size="10">&quot;name&quot;</text><text x="485" y="525" fill="#9a968c" font-family="monospace" font-size="10">:</text><text x="505" y="525" fill="#8fa373" font-family="monospace" font-size="10">&quot;Anna Schmidt&quot;</text><text x="620" y="525" fill="#9a968c" font-family="monospace" font-size="10">,</text><text x="430" y="545" fill="#d1a85c" font-family="monospace" font-size="10">&quot;email&quot;</text><text x="490" y="545" fill="#9a968c" font-family="monospace" font-size="10">:</text><text x="510" y="545" fill="#8fa373" font-family="monospace" font-size="10">&quot;anna@company.com&quot;</text><text x="410" y="565" fill="#9a968c" font-family="monospace" font-size="10">}</text><text x="390" y="580" fill="#9a968c" font-family="monospace" font-size="10">]</text><text x="370" y="580" fill="#9a968c" font-family="monospace" font-size="10">}</text><rect width="1120" height="35" x="40" y="625" fill="rgba(255,45,122,0.06)" stroke="rgba(255,45,122,0.2)" rx="6"/><text x="60" y="647" fill="#9a968c" font-size="11">API Features:</text><text x="210" y="647" fill="#f5f2ec" font-size="11">RESTful Endpoints</text><text x="400" y="647" fill="#f5f2ec" font-size="11">Code Examples</text><text x="590" y="647" fill="#f5f2ec" font-size="11">Interactive Testing</text><text x="800" y="647" fill="#f5f2ec" font-size="11">Authentication Guides</text></svg>