<svg xmlns="http://www.w3.org/2000/svg" width="1200" height="675" viewBox="0 0 1200 675">
  <defs>
    <linearGradient id="grad1" x1="0%" y1="0%" x2="100%" y2="100%">
      <stop offset="0%" style="stop-color:#0A0A0C;stop-opacity:1" />
      <stop offset="100%" style="stop-color:#121216;stop-opacity:1" />
    </linearGradient>
  </defs>

  <!-- Background -->
  <rect width="1200" height="675" fill="url(#grad1)"/>

  <!-- Title Badge -->
  <text x="40" y="35" fill="#FF2D7A" font-size="12" font-family="monospace" letter-spacing="2">CUSTOMER PORTAL INTERFACE</text>

  <!-- Browser Chrome -->
  <rect x="40" y="70" width="1120" height="540" rx="8" fill="#1C1C22" stroke="rgba(245,242,236,0.08)" stroke-width="1"/>

  <!-- Browser Header -->
  <rect x="40" y="70" width="1120" height="40" rx="8" fill="rgba(245,242,236,0.04)" stroke="rgba(245,242,236,0.08)" stroke-width="1"/>
  <circle cx="65" cy="90" r="6" fill="#FF6B6B"/>
  <circle cx="90" cy="90" r="6" fill="#D1A85C"/>
  <circle cx="115" cy="90" r="6" fill="#8FA373"/>
  <rect x="145" y="78" width="500" height="24" rx="12" fill="rgba(245,242,236,0.06)"/>
  <text x="160" y="95" fill="#9A968C" font-size="11">https://portal.yourcompany.com</text>

  <!-- Navigation Bar -->
  <rect x="40" y="120" width="1120" height="60" rx="0" fill="rgba(255,45,122,0.04)" stroke="rgba(245,242,236,0.08)" stroke-width="1"/>

  <!-- Logo -->
  <rect x="70" y="142" width="120" height="16" rx="8" fill="rgba(255,45,122,0.2)"/>
  <text x="80" y="154" fill="#FF2D7A" font-size="13" font-weight="bold">Your Company</text>

  <!-- Nav Menu -->
  <text x="250" y="154" fill="#F5F2EC" font-size="12" font-weight="bold">Dashboard</text>
  <text x="370" y="154" fill="#9A968C" font-size="12">Documents</text>
  <text x="480" y="154" fill="#9A968C" font-size="12">Invoices</text>
  <text x="580" y="154" fill="#9A968C" font-size="12">Support</text>

  <!-- User Menu -->
  <circle cx="1070" cy="150" r="18" fill="rgba(255,45,122,0.15)"/>
  <text x="1063" y="156" fill="#FF2D7A" font-size="13" font-weight="bold">AS</text>
  <text x="1000" y="154" fill="#F5F2EC" font-size="11">Anna Schmidt</text>

  <!-- Main Content Area -->

  <!-- Welcome Section -->
  <rect x="70" y="210" width="550" height="100" rx="8" fill="rgba(245,242,236,0.04)" stroke="rgba(245,242,236,0.08)" stroke-width="1"/>
  <text x="90" y="240" fill="#F5F2EC" font-size="16" font-weight="bold">Willkommen zurück, Anna!</text>
  <text x="90" y="265" fill="#9A968C" font-size="12">Letzte Anmeldung: Heute, 08:23</text>
  <rect x="90" y="280" width="120" height="18" rx="4" fill="rgba(255,45,122,0.12)"/>
  <text x="100" y="293" fill="#FF2D7A" font-size="10">Premium Account ✓</text>

  <!-- Stats Cards -->
  <rect x="650" y="210" width="240" height="100" rx="8" fill="rgba(255,45,122,0.06)" stroke="rgba(255,45,122,0.15)" stroke-width="1"/>
  <text x="670" y="235" fill="#9A968C" font-size="10">AKTIVE PROJEKTE</text>
  <text x="670" y="265" fill="#FF2D7A" font-size="28" font-weight="bold">12</text>
  <text x="670" y="290" fill="#8FA373" font-size="10">+3 diese Woche</text>

  <rect x="910" y="210" width="240" height="100" rx="8" fill="rgba(143,163,115,0.06)" stroke="rgba(143,163,115,0.15)" stroke-width="1"/>
  <text x="930" y="235" fill="#9A968C" font-size="10">OFFENE RECHNUNGEN</text>
  <text x="930" y="265" fill="#8FA373" font-size="28" font-weight="bold">€2,450</text>
  <text x="930" y="290" fill="#9A968C" font-size="10">Fällig bis 30. Mai</text>

  <!-- Recent Documents -->
  <rect x="70" y="330" width="1080" height="260" rx="8" fill="rgba(245,242,236,0.04)" stroke="rgba(245,242,236,0.08)" stroke-width="1"/>
  <text x="90" y="360" fill="#F5F2EC" font-size="14" font-weight="bold">Aktuelle Dokumente</text>
  <rect x="1020" y="345" width="110" height="26" rx="6" fill="rgba(255,45,122,0.12)" stroke="rgba(255,45,122,0.3)" stroke-width="1"/>
  <text x="1035" y="363" fill="#FF2D7A" font-size="11">Alle anzeigen →</text>

  <!-- Document List Header -->
  <text x="90" y="395" fill="#5E5A52" font-size="10" font-family="monospace">NAME</text>
  <text x="550" y="395" fill="#5E5A52" font-size="10" font-family="monospace">TYP</text>
  <text x="720" y="395" fill="#5E5A52" font-size="10" font-family="monospace">DATUM</text>
  <text x="900" y="395" fill="#5E5A52" font-size="10" font-family="monospace">GRÖSSE</text>
  <text x="1030" y="395" fill="#5E5A52" font-size="10" font-family="monospace">AKTION</text>
  <line x1="90" y1="405" x2="1130" y2="405" stroke="rgba(245,242,236,0.08)" stroke-width="1"/>

  <!-- Document Row 1 -->
  <rect x="70" y="415" width="1080" height="45" rx="4" fill="rgba(245,242,236,0.02)"/>
  <text x="90" y="435" fill="#F5F2EC" font-size="12">Projektbericht_Q1_2026.pdf</text>
  <rect x="90" y="440" width="35" height="14" rx="3" fill="rgba(255,45,122,0.12)"/>
  <text x="95" y="450" fill="#FF2D7A" font-size="8" font-family="monospace">NEU</text>
  <text x="550" y="440" fill="#9A968C" font-size="11">PDF</text>
  <text x="720" y="440" fill="#9A968C" font-size="11">18. Mai 2026</text>
  <text x="900" y="440" fill="#9A968C" font-size="11">2.4 MB</text>
  <rect x="1030" y="423" width="100" height="24" rx="4" fill="rgba(255,45,122,0.08)" stroke="rgba(255,45,122,0.2)" stroke-width="1"/>
  <text x="1050" y="440" fill="#FF2D7A" font-size="10">Download</text>

  <!-- Document Row 2 -->
  <rect x="70" y="470" width="1080" height="45" rx="4" fill="transparent"/>
  <text x="90" y="495" fill="#F5F2EC" font-size="12">Rechnung_2026-05.pdf</text>
  <text x="550" y="495" fill="#9A968C" font-size="11">PDF</text>
  <text x="720" y="495" fill="#9A968C" font-size="11">1. Mai 2026</text>
  <text x="900" y="495" fill="#9A968C" font-size="11">154 KB</text>
  <rect x="1030" y="478" width="100" height="24" rx="4" fill="rgba(245,242,236,0.06)" stroke="rgba(245,242,236,0.12)" stroke-width="1"/>
  <text x="1050" y="495" fill="#F5F2EC" font-size="10">Download</text>

  <!-- Document Row 3 -->
  <rect x="70" y="525" width="1080" height="45" rx="4" fill="rgba(245,242,236,0.02)"/>
  <text x="90" y="550" fill="#F5F2EC" font-size="12">Vertrag_Premium_2026.pdf</text>
  <text x="550" y="550" fill="#9A968C" font-size="11">PDF</text>
  <text x="720" y="550" fill="#9A968C" font-size="11">15. April 2026</text>
  <text x="900" y="550" fill="#9A968C" font-size="11">987 KB</text>
  <rect x="1030" y="533" width="100" height="24" rx="4" fill="rgba(245,242,236,0.06)" stroke="rgba(245,242,236,0.12)" stroke-width="1"/>
  <text x="1050" y="550" fill="#F5F2EC" font-size="10">Download</text>

  <!-- Footer -->
  <rect x="40" y="625" width="1120" height="35" rx="6" fill="rgba(255,45,122,0.06)" stroke="rgba(255,45,122,0.2)" stroke-width="1"/>
  <text x="60" y="647" fill="#9A968C" font-size="11">Portal Features:</text>
  <text x="230" y="647" fill="#F5F2EC" font-size="11">Document Library</text>
  <text x="420" y="647" fill="#F5F2EC" font-size="11">Invoice Management</text>
  <text x="640" y="647" fill="#F5F2EC" font-size="11">Support Tickets</text>
  <text x="850" y="647" fill="#F5F2EC" font-size="11">Profile Settings</text>
</svg>
